{"title":"Things.To.Do.In.Denver.When.Youre.Dead.1995.iNTERNAL.DVDRip.XviD","uid":7018252,"size":1477519446,"categoryP":"video","categoryS":"movies","magnet":"?xt=urn:btih:8562255f1da7652afdbe6fff402c5cd13297f49b&amp;dn=Things.To.Do.In.Denver.When.Youre.Dead.1995.iNTERNAL.DVDRip.XviD&amp;tr=udp%3A%2F%2Ftracker.openbittorrent.com%3A80&amp;tr=udp%3A%2F%2Fopen.demonii.com%3A1337&amp;tr=udp%3A%2F%2Ftracker.coppersurfer.tk%3A6969&amp;tr=udp%3A%2F%2Fexodus.desync.com%3A6969","seeders":0,"leechers":1,"uploader":"TvTeam","files":8,"time":1328741042,"description":". \n &lt;a href=&quot;\nhttp://www.torrenting.com&quot; rel=&quot;nofollow&quot; target=&quot;_NEW&quot;&gt;\nhttp://www.torrenting.com&lt;/a&gt;          :     Once &amp; For all ;)\n\n\n               www . Torrenting . Com \n\n(((((((((((((= Enjoy No RAR releases =))))))))))))))))))))\n\n\n...................................NFO:....................................\n\n.                                                                                                     \n       \n     \n     \n       \n       \n     \n     \n                                         \n                                         \n                EXVID                    \n                                         \n         \n                                         \n         Filled the Archives             \n                                         \n         \n                                         \n                With:                    \n                                         \n         \n                                         \n                                    \n     E240                           \n                                    \n     SP               (C) 2009      \n                                         \n     \n     \n     \n                                                                                  \n                                                                                   \n    Things.To.Do.In.Denver.When.Youre.Dead.1995.iNTERNAL.DVDRip.XviD-EXViDiNT       \n                                                                                   \n                                                                                  \n     \n                                                                                               \nEXViD aims to iNTERNAL those releases which have been lost in the archives.\nEXViD aims to PRE non-internal releases which have poor sources and are likely skipped by others.\n &lt;a href=&quot;\nhttp://www.imdb.com/title/tt0114660/&quot; rel=&quot;nofollow&quot; target=&quot;_NEW&quot;&gt;\nhttp://www.imdb.com/title/tt0114660/&lt;/a&gt;\nSubtitles: NL\nDate: 2010.12\n\nDirector:\nGary Fleder\n\nGenres:\nCrime | Drama | Romance\n\nPlot:\nJimmy the Saint's business is videotaping the terminally-ill, so that they will be around to\ngive 'Afterlife Advice' to their survivors. He hasn't been doing too well lately and has had\nto turn to loan-sharks to accomodate his failing business, as well as his expensive personal\ntastes. When an evil gangster-overlord buys up his note and demands a favor of Jimmy, in\nexchange for the interest that he can't afford, Jimmy capitulates. Jimmy is to scare someone\nfor the gangster-overlord--really rough them up. Without giving too much away (spoiler),\nthe scene goes down badly and Jimmy and his crew all end up with contracts on their heads\nfor their trouble. \n\nCast:\nCredited cast:\nAndy Garcia  ...  Jimmy 'The Saint' Tosnia  \nChristopher Lloyd  ...  Pieces  \nWilliam Forsythe  ...  Franchise  \nBill Nunn  ...  Easy Wind  \nTreat Williams  ...  Critical Bill  \nJack Warden  ...  Joe Heff  \nSteve Buscemi  ...  Mister Shhh  \nFairuza Balk  ...  Lucinda  \nGabrielle Anwar  ...  Dagney  \nChristopher Walken  ...  The Man with the Plan  \nMichael Nicolosi  ...  Bernard  \nBill Cobbs  ...  Malt  \nMarshall Bell  ...  Lt. Atwater  \nGlenn Plummer  ...  Baby Sinister  \nDon Stark  ...  Gus  \n\nStats:\nFormat                           : AVI\nFormat/Info                      : Audio Video Interleave\nFile size                        : 1.37 GiB\nDuration                         : 1h 50mn\nOverall bit rate                 : 1 770 Kbps\nWriting application              : VirtualDubMod 1.5.10.2 (build 2540/release)\nWriting library                  : VirtualDubMod build 2540/release\n\nVideo\nID                               : 0\nFormat                           : MPEG-4 Visual\nFormat profile                   : Advanced Simple@L5\nFormat settings, BVOP            : Yes\nFormat settings, QPel            : No\nFormat settings, GMC             : No warppoints\nFormat settings, Matrix          : Default (H.263)\nMuxing mode                      : Packed bitstream\nCodec ID                         : XVID\nCodec ID/Hint                    : XviD\nDuration                         : 1h 50mn\nBit rate                         : 1 313 Kbps\nWidth                            : 640 pixels\nHeight                           : 352 pixels\nDisplay aspect ratio             : 16:9\nFrame rate                       : 25.000 fps\nColor space                      : YUV\nChroma subsampling               : 4:2:0\nBit depth                        : 8 bits\nScan type                        : Progressive\nBits/(Pixel*Frame)               : 0.233\nStream size                      : 1.01 GiB (74%)\nWriting library                  : XviD 1.2.1 (UTC 2008-12-04)\n\nAudio\nID                               : 1\nFormat                           : AC-3\nFormat/Info                      : Audio Coding 3\nMode extension                   : CM (complete main)\nCodec ID                         : 2000\nDuration                         : 1h 50mn\nBit rate mode                    : Constant\nBit rate                         : 448 Kbps\nChannel(s)                       : 6 channels\nChannel positions                : Front: L C R, Side: L R, LFE\nSampling rate                    : 48.0 KHz\nBit depth                        : 16 bits\nStream size                      : 355 MiB (25%)\nAlignment                        : Split accross interleaves\nInterleave, duration             : 40 ms (1.00 video frame)\nInterleave, preload duration     : 500 ms\n\n\n\n\nRelease notes:\nEnjoy!\n\nLooking for:\n75TB+ Archives\nDUTCH/FLEMiSH Archives\n                                                                                                    \nGreets: CRBS EPiSODE FiCO FLS iLS KLASSiGER LiPSYNC MADE NODLABS RUNNER TNAN       \n   \n\n                                                                    ASCII DONE BY XX^NFO 2oo9","torrent":{"xt":"urn:btih:8562255f1da7652afdbe6fff402c5cd13297f49b","amp;dn":"Things.To.Do.In.Denver.When.Youre.Dead.1995.iNTERNAL.DVDRip.XviD","amp;tr":["udp%3A%2F%2Ftracker.openbittorrent.com%3A80","udp%3A%2F%2Fopen.demonii.com%3A1337","udp%3A%2F%2Ftracker.coppersurfer.tk%3A6969","udp%3A%2F%2Fexodus.desync.com%3A6969"],"infoHash":"8562255f1da7652afdbe6fff402c5cd13297f49b","infoHashBuffer":{"type":"Buffer","data":[133,98,37,95,29,167,101,42,253,190,111,255,64,44,92,209,50,151,244,155]},"announce":[],"urlList":[]}}